<svg xmlns="http://www.w3.org/2000/svg" viewBox="0 0 134.85 134.85"><defs><style>.cls-1{fill:#7ac143;}.cls-2{fill:#fafbfb;}</style></defs><g id="Layer_2" data-name="Layer 2"><g id="Layer_1-2" data-name="Layer 1"><rect class="cls-1" width="134.85" height="134.85" rx="34.08"/><path class="cls-2" d="M93.07,60.45c7.94-7,10.71-12.64,11.33-14,2.23-4.74,4.93-10.5,2.15-14.68-2.36-3.54-7.9-4.82-13.75-3.63a31.41,31.41,0,0,1-7.75,25.07c-5.5,6.13-12.79,9.62-20,9.42C58.85,62.5,49.22,60,45.86,53c-3.46-7.21,2.71-13-1.72-19.65-2.22-3.34-6.68-6.3-10.68-5.39a9.17,9.17,0,0,0-6,5.51,42.29,42.29,0,0,0,10.31,26.6A39.35,39.35,0,0,0,54.14,71.44c-3.22,3.9-8,9.5-14.24,16-8.66,9-13.82,13.14-12.61,16.34S35,107,36.77,107.08c10.3.27,20.68-6.66,25.71-16.17A30.94,30.94,0,0,0,66,77.7c6.81,16.26,17,26,23.87,24.56a14.15,14.15,0,0,0,7.71-5,14,14,0,0,0,2.86-8.39C100.17,82,89.8,74.59,74.54,72.15A70.87,70.87,0,0,0,93.07,60.45Z"/><path class="cls-2" d="M61.34,54.43c10.34,4.84,20.4-5.23,15.56-15.56a10,10,0,0,0-4.74-4.74c-10.33-4.84-20.39,5.22-15.55,15.55A9.92,9.92,0,0,0,61.34,54.43Z"/></g></g></svg>